HIERARCHY
ROOT Hips
{
	OFFSET 0.0000 0.0000 0.0000
	CHANNELS 6 Xposition Yposition Zposition Zrotation Xrotation Yrotation
	JOINT Ab
	{
		OFFSET -0.0000 8.1305 -0.0000
		CHANNELS 3 Zrotation Xrotation Yrotation
		JOINT Chest
		{
			OFFSET -0.0000 26.2902 -0.0000
			CHANNELS 3 Zrotation Xrotation Yrotation
			JOINT Neck
			{
				OFFSET -0.0000 26.2902 0.0000
				CHANNELS 3 Zrotation Xrotation Yrotation
				JOINT Head
				{
					OFFSET -0.0000 10.8167 0.0000
					CHANNELS 3 Zrotation Xrotation Yrotation
					End Site
					{
						OFFSET -0.0000 16.7167 0.0000
					}
				}
			}
			JOINT LeftCollar
			{
				OFFSET -0.0000 26.2902 0.0000
				CHANNELS 3 Zrotation Xrotation Yrotation
				JOINT LeftShoulder
				{
					OFFSET 19.6667 -0.0000 0.0000
					CHANNELS 3 Zrotation Xrotation Yrotation
					JOINT LeftElbow
					{
						OFFSET 27.2190 0.0000 0.0000
						CHANNELS 3 Zrotation Xrotation Yrotation
						JOINT LeftWrist
						{
							OFFSET 30.7431 0.0000 0.0000
							CHANNELS 3 Zrotation Xrotation Yrotation
							End Site
							{
								OFFSET 0.0000 -14.7500 0.0000
							}
						}
					}
				}
			}
			JOINT RightCollar
			{
				OFFSET -0.0000 26.2902 0.0000
				CHANNELS 3 Zrotation Xrotation Yrotation
				JOINT RightShoulder
				{
					OFFSET -19.6667 0.0000 0.0000
					CHANNELS 3 Zrotation Xrotation Yrotation
					JOINT RightElbow
					{
						OFFSET -27.2190 0.0000 0.0000
						CHANNELS 3 Zrotation Xrotation Yrotation
						JOINT RightWrist
						{
							OFFSET -30.7431 0.0000 0.0000
							CHANNELS 3 Zrotation Xrotation Yrotation
							End Site
							{
								OFFSET -0.0000 -14.7500 0.0000
							}
						}
					}
				}
			}
		}
	}
	JOINT LeftHip
	{
		OFFSET 11.8000 0.0000 0.0000
		CHANNELS 3 Zrotation Xrotation Yrotation
		JOINT LeftKnee
		{
			OFFSET -0.0000 -39.7832 0.0000
			CHANNELS 3 Zrotation Xrotation Yrotation
			JOINT LeftAnkle
			{
				OFFSET -0.0000 -41.7317 0.0000
				CHANNELS 3 Zrotation Xrotation Yrotation
				End Site
				{
					OFFSET -0.0000 -4.9167 16.7167
				}
			}
		}
	}
	JOINT RightHip
	{
		OFFSET -11.8000 0.0000 0.0000
		CHANNELS 3 Zrotation Xrotation Yrotation
		JOINT RightKnee
		{
			OFFSET -0.0000 -39.7832 0.0000
			CHANNELS 3 Zrotation Xrotation Yrotation
			JOINT RightAnkle
			{
				OFFSET -0.0000 -41.7317 0.0000
				CHANNELS 3 Zrotation Xrotation Yrotation
				End Site
				{
					OFFSET -0.0000 -4.9167 16.7167
				}
			}
		}
	}
}
MOTION
Frames: 12
Frame Time: 0.010000
-14.5789 96.8720 178.5021 358.8042 357.8960 178.4398 358.2338 347.6870 0.1526 2.7003 10.8876 0.0934 358.7565 1.0396 359.3674 357.9905 5.6681 359.4566 339.1386 357.4166 14.0744 321.1103 58.9458 336.6594 7.8876 357.7128 327.7604 85.0957 357.0674 345.7235 28.1267 355.9029 343.7041 44.4563 47.8342 4.6465 340.2095 354.5893 30.3618 271.0254 355.3128 7.9540 357.4080 2.9929 359.4382 357.3201 7.9629 1.9935 355.0712 350.4187 18.3552 358.7866 6.6979 9.1675 5.9604 5.8575 8.0578 351.1744 343.0672 318.1729 
-14.6052 96.8681 178.4984 358.8026 357.8669 178.4482 358.2300 347.6865 0.1521 2.7002 10.8912 0.0876 358.7263 1.0034 359.3793 358.0259 5.7255 359.4614 339.1452 357.4024 14.0726 321.0066 58.9271 336.7433 7.9288 357.6937 327.7486 85.0890 357.0780 345.7164 28.1278 355.8802 343.7112 44.4500 47.8257 4.6482 340.1712 354.5566 30.3582 271.0253 355.2990 7.9370 357.3878 2.9363 359.4327 357.3216 8.0188 1.9598 355.1639 350.3956 18.3767 358.7609 6.6690 9.1955 5.9785 5.8616 8.0327 351.1848 343.0534 318.1706 
-14.6326 96.8650 178.4917 358.8045 357.8463 178.4643 358.2248 347.6937 0.1507 2.6962 10.8893 0.0835 358.7365 1.0020 359.3765 358.0337 5.7551 359.4538 339.1478 357.4012 14.0770 321.0085 58.9349 336.7352 7.9356 357.7228 327.7521 85.2166 357.1301 345.7999 28.1470 355.8927 343.7256 44.4545 47.7417 4.5954 340.2116 354.5500 30.4699 270.9197 355.4785 7.7188 357.3746 2.8829 359.3929 357.3095 8.0871 1.9862 355.1824 350.3706 18.3724 358.7429 6.6503 9.1687 5.9829 5.8722 8.0323 351.1998 343.0318 318.1885 
-14.6607 96.8603 178.4882 358.8111 357.8150 178.4774 358.2323 347.6948 0.1422 2.6770 10.8843 0.0864 358.7795 1.0086 359.3711 358.0024 5.7790 359.4568 339.1487 357.3916 14.0862 321.0541 58.9425 336.6942 7.9140 357.7093 327.7114 85.8812 357.2495 346.1368 28.1406 355.8807 343.7127 44.4754 47.7727 4.5997 340.1580 354.5461 30.4598 270.9436 355.4892 7.6292 357.3685 2.8166 359.3663 357.2944 8.1561 1.9782 355.1780 350.3336 18.3935 358.7280 6.6175 9.1613 5.9936 5.8840 8.0152 351.1748 343.0382 318.1951 
-14.6890 96.8553 178.4868 358.8207 357.7841 178.4905 358.2352 347.7058 0.1448 2.6739 10.8687 0.0843 358.7968 1.0198 359.3753 357.9821 5.7971 359.4728 339.1417 357.3876 14.0978 321.0733 58.9530 336.6740 7.9059 357.7029 327.7264 85.9226 357.2397 346.1628 28.1374 355.8947 343.7154 44.5002 47.7782 4.5783 340.1624 354.5486 30.4480 270.9769 355.4659 7.6856 357.3647 2.7451 359.3534 357.2812 8.2340 1.9616 355.1663 350.2990 18.4108 358.7179 6.5844 9.1285 5.9983 5.8957 8.0379 351.1760 343.0186 318.1882 
-14.7232 96.8511 178.4839 358.8204 357.7613 178.4984 358.2333 347.7264 0.1482 2.6681 10.8501 0.0841 358.7950 1.0540 359.3799 358.0002 5.7889 359.4705 339.1298 357.3940 14.0950 321.0612 58.9350 336.7013 7.8893 357.7033 327.7348 85.6916 357.2347 346.0236 28.1326 355.9039 343.7135 44.5174 47.7842 4.5693 340.1412 354.5553 30.4242 270.9926 355.4306 7.7113 357.3454 2.6806 359.3234 357.2654 8.3152 1.9674 355.1465 350.2502 18.4362 358.6909 6.5567 9.0806 6.0059 5.9141 8.0652 351.1955 342.9932 318.1926 
-14.7609 96.8450 178.4805 358.8199 357.7307 178.5027 358.2413 347.7339 0.1488 2.6498 10.8460 0.0898 358.7812 1.0427 359.3892 358.0298 5.8304 359.4818 339.1258 357.3989 14.1104 321.1109 58.9541 336.6371 7.9127 357.6929 327.7619 85.6126 357.2225 346.0201 28.1384 355.9071 343.7255 44.5326 47.7654 4.5371 340.1398 354.5560 30.4350 270.9714 355.4184 7.7171 357.3214 2.6099 359.2879 357.2544 8.3940 1.9730 355.2704 350.2254 18.4593 358.6576 6.5210 9.0660 6.0235 5.9291 8.0674 351.2417 342.9596 318.1880 
-14.7981 96.8388 178.4759 358.8287 357.7025 178.5132 358.2557 347.7415 0.1497 2.6301 10.8540 0.0964 358.7893 1.0241 359.3932 358.0376 5.8684 359.4874 339.1379 357.3828 14.1107 321.0888 58.9693 336.6366 7.9768 357.6878 327.7545 85.7412 357.2441 346.1683 28.1432 355.8904 343.7300 44.5386 47.7730 4.5231 340.1305 354.5401 30.4290 270.9315 355.3906 7.7036 357.3074 2.5381 359.2599 357.2452 8.4808 1.9644 355.3459 350.1998 18.4788 358.6414 6.4910 9.0379 6.0277 5.9434 8.0604 351.2830 342.9341 318.2064 
-14.8382 96.8322 178.4726 358.8333 357.6713 178.5176 358.2747 347.7413 0.1542 2.6043 10.8788 0.0951 358.7766 1.0124 359.4013 358.0626 5.8805 359.4941 339.1352 357.3977 14.1326 321.1539 58.9650 336.5640 7.9291 357.7036 327.7248 85.9837 357.2881 346.3049 28.1585 355.8921 343.7464 44.5209 47.7599 4.5081 340.1323 354.5161 30.4434 271.1737 355.4619 7.9617 357.2843 2.4567 359.2494 357.2437 8.5799 1.9497 355.2442 350.1447 18.5079 358.6155 6.4502 9.0173 6.0380 5.9701 8.0670 351.2616 342.9266 318.2246 
-14.8776 96.8273 178.4618 358.8390 357.6547 178.5088 358.2771 347.7381 0.1677 2.6042 10.9305 0.1082 358.7902 0.9944 359.4134 358.0429 5.8910 359.5019 339.1291 357.3761 14.1434 321.1877 58.9703 336.5143 8.0107 357.6759 327.7302 85.7949 357.2093 346.2021 28.1605 355.9180 343.7582 44.4901 47.7132 4.5367 340.1428 354.5459 30.4591 271.2769 355.4543 7.9895 357.2689 2.4047 359.2126 357.2223 8.6623 1.9550 355.4168 350.1087 18.5332 358.5967 6.4276 8.9877 6.0335 5.9933 8.0826 351.2683 342.9099 318.2402 
-14.9191 96.8218 178.4487 358.8450 357.6392 178.5026 358.2786 347.7477 0.1735 2.6022 10.9517 0.1130 358.7972 1.0229 359.4116 358.0553 5.8694 359.5037 339.1221 357.3779 14.1732 321.2895 59.0092 336.4032 7.9866 357.6943 327.7404 85.7999 357.1721 346.2148 28.1430 355.8975 343.7666 44.5224 47.7786 4.5269 340.0998 354.5365 30.4204 270.9998 355.3558 7.6640 357.2473 2.3481 359.1763 357.2149 8.7513 1.9488 355.4201 350.0486 18.5782 358.5699 6.4119 8.9651 6.0408 6.0112 8.1039 351.3116 342.8693 318.2374 
-14.9612 96.8173 178.4365 358.8536 357.6137 178.5090 358.2773 347.7485 0.1782 2.6028 10.9672 0.1166 358.8192 1.0554 359.4164 358.0305 5.8611 359.5137 339.1211 357.3769 14.1839 321.3205 59.0420 336.3546 8.0159 357.6728 327.7510 85.7166 357.1594 346.2072 28.1502 355.9242 343.7970 44.5498 47.7133 4.4606 340.1569 354.5420 30.4574 270.9925 355.3883 7.6659 357.2312 2.2717 359.1590 357.1981 8.8669 1.9532 355.3759 350.0020 18.5797 358.5512 6.3670 8.8091 6.0314 6.0811 8.2040 351.3384 342.8225 318.2773 
